<svg width="32" height="32" viewBox="0 0 32 32" fill="none" xmlns="http://www.w3.org/2000/svg">
<path d="M18.6666 28H13.3333M23.9999 10.6667C23.9999 8.54496 23.1571 6.51012 21.6568 5.00983C20.1565 3.50954 18.1217 2.66669 15.9999 2.66669C13.8782 2.66669 11.8434 3.50954 10.3431 5.00983C8.8428 6.51012 7.99994 8.54496 7.99994 10.6667C7.99994 14.7869 6.96057 17.608 5.7995 19.4739C4.82011 21.0479 4.33042 21.8348 4.34838 22.0544C4.36826 22.2975 4.41976 22.3902 4.61564 22.5355C4.79256 22.6667 5.59006 22.6667 7.18508 22.6667H24.8148C26.4098 22.6667 27.2073 22.6667 27.3842 22.5355C27.5801 22.3902 27.6316 22.2975 27.6515 22.0544C27.6695 21.8348 27.1798 21.0479 26.2004 19.4739C25.0393 17.608 23.9999 14.7869 23.9999 10.6667Z" stroke="black" stroke-width="2" stroke-linecap="round" stroke-linejoin="round"/>
</svg>
