<svg width="28" height="28" viewBox="0 0 30 32" fill="none" xmlns="http://www.w3.org/2000/svg">
<path d="M16.5295 8.85186C15.9571 9.25995 15.2566 9.5 14.5 9.5C12.567 9.5 11 7.933 11 6C11 4.067 12.567 2.5 14.5 2.5C15.753 2.5 16.8522 3.15842 17.4705 4.14814M9 20.5872H11.6103C11.9506 20.5872 12.2889 20.6277 12.6188 20.7086L15.3769 21.3789C15.9753 21.5247 16.5988 21.5388 17.2035 21.4214L20.253 20.8281C21.0585 20.6712 21.7996 20.2854 22.3803 19.7205L24.5379 17.6217C25.154 17.0234 25.154 16.0524 24.5379 15.4531C23.9832 14.9134 23.1047 14.8527 22.4771 15.3103L19.9626 17.1449C19.6025 17.4081 19.1643 17.5498 18.7137 17.5498H16.2855L17.8311 17.5498C18.7022 17.5498 19.4079 16.8633 19.4079 16.0159V15.7091C19.4079 15.0055 18.9156 14.392 18.2141 14.2219L15.8286 13.6417C15.4404 13.5476 15.0428 13.5 14.6431 13.5C13.6783 13.5 11.9319 14.2988 11.9319 14.2988L9 15.5249M23 7C23 8.933 21.433 10.5 19.5 10.5C17.567 10.5 16 8.933 16 7C16 5.067 17.567 3.5 19.5 3.5C21.433 3.5 23 5.067 23 7ZM5 15.1L5 20.9C5 21.4601 5 21.7401 5.10899 21.954C5.20487 22.1422 5.35785 22.2951 5.54601 22.391C5.75992 22.5 6.03995 22.5 6.6 22.5H7.4C7.96005 22.5 8.24008 22.5 8.45399 22.391C8.64215 22.2951 8.79513 22.1422 8.89101 21.954C9 21.7401 9 21.4601 9 20.9V15.1C9 14.5399 9 14.2599 8.89101 14.046C8.79513 13.8578 8.64215 13.7049 8.45399 13.609C8.24008 13.5 7.96005 13.5 7.4 13.5L6.6 13.5C6.03995 13.5 5.75992 13.5 5.54601 13.609C5.35785 13.7049 5.20487 13.8578 5.10899 14.046C5 14.2599 5 14.5399 5 15.1Z" stroke="#B0B0B0" stroke-width="2" stroke-linecap="round" stroke-linejoin="round"/>
</svg>
